<svg xmlns="http://www.w3.org/2000/svg" viewBox="0 0 512 512" role="img" aria-label="KumaNORETA icon">
  <defs>
    <linearGradient id="bg" x1="0%" y1="0%" x2="100%" y2="100%">
      <stop offset="0%" stop-color="#821a1e" />
      <stop offset="45%" stop-color="#be2f2f" />
      <stop offset="100%" stop-color="#d89f5d" />
    </linearGradient>
    <linearGradient id="bus" x1="0%" y1="0%" x2="0%" y2="100%">
      <stop offset="0%" stop-color="#ffe7cf" />
      <stop offset="100%" stop-color="#d59a4f" />
    </linearGradient>
  </defs>
  <rect width="512" height="512" rx="120" fill="url(#bg)" />
  <path
    d="M26 370C87 316 133 337 184 270C229 211 283 256 329 199C369 151 424 177 486 109V512H26Z"
    fill="#fff6ed"
    opacity="0.18"
  />
  <path
    d="M316 120L337 147H365L342 166L350 194L316 176L282 194L291 166L267 147H295Z"
    fill="#fff0e6"
    opacity="0.86"
  />
  <path
    d="M324 135V175H300V202H269V175H244V135H269V108H300V135Z"
    fill="#651518"
    opacity="0.32"
  />
  <path
    d="M120 298C120 249 159 210 208 210H304C353 210 392 249 392 298V334C392 361 370 383 343 383H169C142 383 120 361 120 334Z"
    fill="url(#bus)"
    stroke="#281b19"
    stroke-width="18"
  />
  <rect x="156" y="246" width="200" height="72" rx="18" fill="#fff8f3" opacity="0.94" />
  <path d="M156 272H356" stroke="#281b19" stroke-width="14" stroke-linecap="round" opacity="0.2" />
  <circle cx="184" cy="386" r="28" fill="#281b19" />
  <circle cx="328" cy="386" r="28" fill="#281b19" />
  <path d="M165 331H347" stroke="#281b19" stroke-width="16" stroke-linecap="round" />
  <path d="M96 432H416" stroke="#fff6ee" stroke-width="18" stroke-linecap="round" opacity="0.44" />
  <circle cx="88" cy="432" r="14" fill="#fff6ee" opacity="0.44" />
  <circle cx="424" cy="432" r="14" fill="#fff6ee" opacity="0.44" />
</svg>
